ShinkaiMono.ufo
<glyph name="quotedbl" format="2">
	<advance width="500"/>
	<unicode hex="0022"/>
	<outline>
		<contour>
			<point x="115" y="700" type="line"/>
			<point x="127" y="463" type="line"/>
			<point x="183" y="463" type="line"/>
			<point x="195" y="700" type="line"/>
		</contour>
		<contour>
			<point x="305" y="700" type="line"/>
			<point x="317" y="463" type="line"/>
			<point x="373" y="463" type="line"/>
			<point x="385" y="700" type="line"/>
		</contour>
	</outline>
</glyph>
<glyph name="numbersign" format="2">
	<advance width="500"/>
	<unicode hex="0023"/>
	<outline>
		<contour>
			<point x="299" y="627" type="line"/>
			<point x="299" y="53" type="line"/>
			<point x="361" y="53" type="line"/>
			<point x="361" y="627" type="line"/>
		</contour>
		<contour>
			<point x="139" y="627" type="line"/>
			<point x="139" y="53" type="line"/>
			<point x="201" y="53" type="line"/>
			<point x="201" y="627" type="line"/>
		</contour>
		<contour>
			<point x="437" y="483" type="line"/>
			<point x="63" y="483" type="line"/>
			<point x="63" y="421" type="line"/>
			<point x="437" y="421" type="line"/>
		</contour>
		<contour>
			<point x="437" y="259" type="line"/>
			<point x="63" y="259" type="line"/>
			<point x="63" y="197" type="line"/>
			<point x="437" y="197" type="line"/>
		</contour>
	</outline>
</glyph>
<glyph name="quotesingle" format="2">
	<advance width="500"/>
	<unicode hex="0027"/>
	<outline>
		<contour>
			<point x="210" y="700" type="line"/>
			<point x="222" y="463" type="line"/>
			<point x="278" y="463" type="line"/>
			<point x="290" y="700" type="line"/>
		</contour>
	</outline>
</glyph>
<glyph name="parenleft" format="2">
	<advance width="500"/>
	<unicode hex="0028"/>
	<outline>
		<contour>
			<point x="374" y="761" type="line"/>
			<point x="182" y="695"/>
			<point x="89" y="558"/>
			<point x="89" y="340" type="curve"/>
			<point x="159" y="340" type="line"/>
			<point x="157" y="505"/>
			<point x="226" y="643"/>
			<point x="400" y="700" type="curve"/>
		</contour>
		<contour>
			<point x="374" y="-81" type="curve"/>
			<point x="400" y="-20" type="line"/>
			<point x="226" y="37"/>
			<point x="157" y="175"/>
			<point x="159" y="340" type="curve"/>
			<point x="89" y="340" type="line"/>
			<point x="89" y="122"/>
			<point x="182" y="-15"/>
		</contour>
	</outline>
</glyph>
<glyph name="zero" format="2">
	<advance width="501"/>
	<unicode hex="0030"/>
	<outline>
		<contour>
			<point x="216" y="391" type="line" smooth="yes"/>
			<point x="209" y="391"/>
			<point x="200" y="382"/>
			<point x="200" y="375" type="curve" smooth="yes"/>
			<point x="200" y="306" type="line" smooth="yes"/>
			<point x="200" y="299"/>
			<point x="209" y="290"/>
			<point x="216" y="290" type="curve" smooth="yes"/>
			<point x="284" y="290" type="line" smooth="yes"/>
			<point x="291" y="290"/>
			<point x="300" y="299"/>
			<point x="300" y="306" type="curve" smooth="yes"/>
			<point x="300" y="375" type="line" smooth="yes"/>
			<point x="300" y="382"/>
			<point x="291" y="391"/>
			<point x="284" y="391" type="curve" smooth="yes"/>
		</contour>
		<contour>
			<point x="245" y="694" type="curve" smooth="yes"/>
			<point x="401" y="694"/>
			<point x="447" y="563"/>
			<point x="447" y="343" type="curve" smooth="yes"/>
			<point x="447" y="143"/>
			<point x="412" y="-4"/>
			<point x="245" y="-4" type="curve" smooth="yes"/>
			<point x="78" y="-4"/>
			<point x="43" y="143"/>
			<point x="43" y="343" type="curve" smooth="yes"/>
			<point x="43" y="563"/>
			<point x="89" y="694"/>
		</contour>
		<contour>
			<point x="113" y="343" type="curve" smooth="yes"/>
			<point x="113" y="130"/>
			<point x="164" y="68"/>
			<point x="245" y="67" type="curve" smooth="yes"/>
			<point x="326" y="68"/>
			<point x="378" y="130"/>
			<point x="378" y="343" type="curve" smooth="yes"/>
			<point x="378" y="556"/>
			<point x="323" y="624"/>
			<point x="245" y="624" type="curve" smooth="yes"/>
			<point x="164" y="624"/>
			<point x="113" y="556"/>
		</contour>
	</outline>
</glyph>
<glyph name="one" format="2">
	<advance width="500"/>
	<unicode hex="0031"/>
	<outline>
		<contour>
			<point x="416" y="-9" type="line"/>
			<point x="416" y="61" type="line"/>
			<point x="294" y="60" type="line"/>
			<point x="294" y="705" type="line"/>
			<point x="224" y="705" type="line"/>
			<point x="80" y="578" type="line"/>
			<point x="127" y="524" type="line"/>
			<point x="222" y="610" type="line"/>
			<point x="224" y="60" type="line"/>
			<point x="100" y="61" type="line"/>
			<point x="100" y="-9" type="line"/>
		</contour>
	</outline>
</glyph>
<glyph name="two" format="2">
	<advance width="500"/>
	<unicode hex="0032"/>
	<outline>
		<contour>
			<point x="436" y="0" type="line"/>
			<point x="436" y="112" type="line"/>
			<point x="365" y="112" type="line"/>
			<point x="365" y="60" type="line"/>
			<point x="154" y="60" type="line"/>
			<point x="350" y="313" type="line" smooth="yes"/>
			<point x="454" y="447"/>
			<point x="481" y="700"/>
			<point x="257" y="700" type="curve" smooth="yes"/>
			<point x="137" y="700"/>
			<point x="70" y="625"/>
			<point x="59" y="527" type="curve"/>
			<point x="130" y="516" type="line"/>
			<point x="136" y="582"/>
			<point x="184" y="630"/>
			<point x="256" y="630" type="curve" smooth="yes"/>
			<point x="380" y="630"/>
			<point x="395" y="486"/>
			<point x="291" y="352" type="curve" smooth="yes"/>
			<point x="64" y="60" type="line"/>
			<point x="64" y="0" type="line"/>
		</contour>
	</outline>
</glyph>
<glyph name="three" format="2">
	<advance width="500"/>
	<unicode hex="0033"/>
	<outline>
		<contour>
			<point x="252" y="355" type="line"/>
			<point x="252" y="421" type="line"/>
			<point x="429" y="629" type="line"/>
			<point x="429" y="699" type="line"/>
			<point x="66" y="699" type="line"/>
			<point x="66" y="558" type="line"/>
			<point x="136" y="558" type="line"/>
			<point x="136" y="629" type="line"/>
			<point x="334" y="629" type="line"/>
			<point x="157" y="421" type="line"/>
			<point x="157" y="355" type="line"/>
		</contour>
		<contour>
			<point x="250" y="421" type="curve"/>
			<point x="250" y="355" type="line"/>
			<point x="328" y="355"/>
			<point x="369" y="335"/>
			<point x="369" y="214" type="curve" smooth="yes"/>
			<point x="369" y="97"/>
			<point x="330" y="58"/>
			<point x="252" y="58" type="curve" smooth="yes"/>
			<point x="186" y="58"/>
			<point x="148" y="100"/>
			<point x="139" y="180" type="curve"/>
			<point x="69" y="181" type="line"/>
			<point x="81" y="56"/>
			<point x="133" y="-8"/>
			<point x="249" y="-8" type="curve" smooth="yes"/>
			<point x="382" y="-8"/>
			<point x="439" y="53"/>
			<point x="439" y="215" type="curve" smooth="yes"/>
			<point x="439" y="361"/>
			<point x="382" y="421"/>
		</contour>
	</outline>
</glyph>
<glyph name="four" format="2">
	<advance width="500"/>
	<unicode hex="0034"/>
	<outline>
		<contour>
			<point x="432" y="185" type="line"/>
			<point x="432" y="255" type="line"/>
			<point x="139" y="255" type="line"/>
			<point x="399" y="700" type="line"/>
			<point x="314" y="700" type="line"/>
			<point x="54" y="255" type="line"/>
			<point x="54" y="185" type="line"/>
		</contour>
		<contour>
			<point x="432" y="0" type="line"/>
			<point x="432" y="69" type="line"/>
			<point x="395" y="69" type="line"/>
			<point x="395" y="423" type="line"/>
			<point x="325" y="423" type="line"/>
			<point x="325" y="69" type="line"/>
			<point x="233" y="69" type="line"/>
			<point x="233" y="-1" type="line"/>
		</contour>
	</outline>
</glyph>
<glyph name="five" format="2">
	<advance width="500"/>
	<unicode hex="0035"/>
	<outline>
		<contour>
			<point x="87" y="305" type="line"/>
			<point x="157" y="304" type="line"/>
			<point x="168" y="376"/>
			<point x="196" y="411"/>
			<point x="257" y="411" type="curve" smooth="yes"/>
			<point x="335" y="411"/>
			<point x="372" y="355"/>
			<point x="372" y="234" type="curve" smooth="yes"/>
			<point x="372" y="117"/>
			<point x="340" y="55"/>
			<point x="262" y="55" type="curve" smooth="yes"/>
			<point x="196" y="55"/>
			<point x="164" y="100"/>
			<point x="155" y="180" type="curve"/>
			<point x="85" y="181" type="line"/>
			<point x="97" y="56"/>
			<point x="143" y="-8"/>
			<point x="259" y="-8" type="curve" smooth="yes"/>
			<point x="392" y="-8"/>
			<point x="442" y="73"/>
			<point x="442" y="235" type="curve" smooth="yes"/>
			<point x="442" y="405"/>
			<point x="387" y="478"/>
			<point x="254" y="478" type="curve" smooth="yes"/>
			<point x="213" y="478"/>
			<point x="181" y="471"/>
			<point x="157" y="455" type="curve"/>
			<point x="157" y="630" type="line"/>
			<point x="354" y="630" type="line"/>
			<point x="354" y="580" type="line"/>
			<point x="423" y="580" type="line"/>
			<point x="424" y="700" type="line"/>
			<point x="87" y="700" type="line"/>
		</contour>
	</outline>
</glyph>
<glyph name="six" format="2">
	<advance width="500"/>
	<unicode hex="0036"/>
	<outline>
		<contour>
			<point x="246" y="60" type="curve" smooth="yes"/>
			<point x="169" y="60"/>
			<point x="135" y="104"/>
			<point x="135" y="205" type="curve" smooth="yes"/>
			<point x="135" y="312"/>
			<point x="170" y="359"/>
			<point x="246" y="359" type="curve" smooth="yes"/>
			<point x="316" y="359"/>
			<point x="352" y="304"/>
			<point x="352" y="205" type="curve" smooth="yes"/>
			<point x="352" y="111"/>
			<point x="310" y="60"/>
		</contour>
		<contour>
			<point x="61" y="206" type="curve" smooth="yes"/>
			<point x="61" y="66"/>
			<point x="112" y="-8"/>
			<point x="244" y="-8" type="curve" smooth="yes"/>
			<point x="361" y="-8"/>
			<point x="422" y="72"/>
			<point x="422" y="206" type="curve" smooth="yes"/>
			<point x="422" y="348"/>
			<point x="367" y="421"/>
			<point x="244" y="421" type="curve" smooth="yes"/>
			<point x="214.375" y="421"/>
			<point x="190" y="417"/>
			<point x="168" y="410" type="curve"/>
			<point x="215" y="522"/>
			<point x="263" y="610"/>
			<point x="312" y="700" type="curve"/>
			<point x="234" y="700" type="line"/>
			<point x="185" y="616"/>
			<point x="176" y="595"/>
			<point x="117" y="469" type="curve" smooth="yes"/>
			<point x="88" y="406"/>
			<point x="61" y="306"/>
		</contour>
	</outline>
</glyph>
<glyph name="seven" format="2">
	<advance width="500"/>
	<unicode hex="0037"/>
	<outline>
		<contour>
			<point x="223" y="1" type="line"/>
			<point x="433" y="638" type="line"/>
			<point x="433" y="699" type="line"/>
			<point x="71" y="699" type="line"/>
			<point x="71" y="554" type="line"/>
			<point x="140" y="554" type="line"/>
			<point x="140" y="638" type="line"/>
			<point x="356" y="638" type="line"/>
			<point x="147" y="1" type="line"/>
		</contour>
	</outline>
</glyph>
<glyph name="eight" format="2">
	<advance width="500"/>
	<unicode hex="0038"/>
	<outline>
		<contour>
			<point x="248" y="334" type="curve" smooth="yes"/>
			<point x="323" y="334"/>
			<point x="375" y="258"/>
			<point x="375" y="198" type="curve" smooth="yes"/>
			<point x="375" y="109"/>
			<point x="306" y="68"/>
			<point x="248" y="68" type="curve" smooth="yes"/>
			<point x="185" y="68"/>
			<point x="120" y="109"/>
			<point x="120" y="198" type="curve" smooth="yes"/>
			<point x="120" y="262"/>
			<point x="170" y="334"/>
		</contour>
		<contour>
			<point x="250" y="397" type="curve" smooth="yes"/>
			<point x="111" y="397"/>
			<point x="45" y="298"/>
			<point x="45" y="197" type="curve" smooth="yes"/>
			<point x="45" y="69"/>
			<point x="127" y="-1"/>
			<point x="250" y="-1" type="curve" smooth="yes"/>
			<point x="368" y="-1"/>
			<point x="455" y="69"/>
			<point x="455" y="197" type="curve" smooth="yes"/>
			<point x="455" y="294"/>
			<point x="386" y="397"/>
		</contour>
		<contour>
			<point x="248" y="398" type="curve" smooth="yes"/>
			<point x="173" y="398"/>
			<point x="144" y="457"/>
			<point x="144" y="523" type="curve" smooth="yes"/>
			<point x="144" y="577"/>
			<point x="189" y="625"/>
			<point x="248" y="625" type="curve" smooth="yes"/>
			<point x="306" y="625"/>
			<point x="351" y="577"/>
			<point x="351" y="523" type="curve" smooth="yes"/>
			<point x="351" y="461"/>
			<point x="322" y="398"/>
		</contour>
		<contour>
			<point x="250" y="351" type="curve" smooth="yes"/>
			<point x="376" y="351"/>
			<point x="425" y="429"/>
			<point x="425" y="524" type="curve" smooth="yes"/>
			<point x="425" y="614"/>
			<point x="354" y="693"/>
			<point x="250" y="693" type="curve" smooth="yes"/>
			<point x="145" y="693"/>
			<point x="75" y="614"/>
			<point x="75" y="524" type="curve" smooth="yes"/>
			<point x="75" y="426"/>
			<point x="123" y="351"/>
		</contour>
	</outline>
</glyph>
<glyph name="nine" format="2">
	<advance width="500"/>
	<unicode hex="0039"/>
	<outline>
		<contour>
			<point x="251" y="631" type="curve" smooth="yes"/>
			<point x="321" y="631"/>
			<point x="364" y="588"/>
			<point x="364" y="487" type="curve" smooth="yes"/>
			<point x="364" y="485.986" type="line" smooth="yes"/>
			<point x="364" y="402"/>
			<point x="345" y="340"/>
			<point x="251" y="340" type="curve" smooth="yes"/>
			<point x="187" y="340"/>
			<point x="137" y="400"/>
			<point x="137" y="487" type="curve" smooth="yes"/>
			<point x="137" y="572"/>
			<point x="189" y="631"/>
		</contour>
		<contour>
			<point x="67" y="486" type="curve" smooth="yes"/>
			<point x="67" y="356"/>
			<point x="133" y="271"/>
			<point x="253" y="271" type="curve" smooth="yes"/>
			<point x="279.376" y="271"/>
			<point x="302.37" y="273.556"/>
			<point x="322.285" y="278.825" type="curve"/>
			<point x="318.01" y="266.534"/>
			<point x="313.554" y="254.836"/>
			<point x="309" y="244" type="curve" smooth="yes"/>
			<point x="272" y="155"/>
			<point x="226" y="88"/>
			<point x="172" y="-8" type="curve"/>
			<point x="254" y="-8" type="line"/>
			<point x="306" y="76"/>
			<point x="321" y="97"/>
			<point x="380" y="223" type="curve" smooth="yes"/>
			<point x="422" y="313"/>
			<point x="433" y="422"/>
			<point x="433" y="486" type="curve" smooth="yes"/>
			<point x="433" y="626"/>
			<point x="377" y="700"/>
			<point x="253" y="700" type="curve" smooth="yes"/>
			<point x="134" y="700"/>
			<point x="67" y="611"/>
		</contour>
	</outline>
</glyph>
<glyph name="greater" format="2">
	<advance width="500"/>
	<unicode hex="003E"/>
	<outline>
		<contour>
			<point x="456" y="305" type="line"/>
			<point x="456" y="380" type="line"/>
			<point x="56" y="529" type="line"/>
			<point x="56" y="449" type="line"/>
		</contour>
		<contour>
			<point x="456" y="375" type="line"/>
			<point x="56" y="231" type="line"/>
			<point x="56" y="151" type="line"/>
			<point x="456" y="300" type="line"/>
		</contour>
	</outline>
</glyph>
<glyph name="question" format="2">
	<advance width="500"/>
	<unicode hex="003F"/>
	<outline>
		<contour>
			<point x="98" y="631" type="curve"/>
			<point x="158" y="555" type="line"/>
			<point x="191" y="577" type="line"/>
			<point x="178" y="611" type="line"/>
			<point x="281" y="679"/>
			<point x="356" y="597"/>
			<point x="356" y="518" type="curve" smooth="yes"/>
			<point x="356" y="432"/>
			<point x="225" y="340"/>
			<point x="220" y="199" type="curve"/>
			<point x="286" y="199" type="line"/>
			<point x="297" y="342"/>
			<point x="422" y="407"/>
			<point x="422" y="518" type="curve" smooth="yes"/>
			<point x="422" y="688"/>
			<point x="232" y="757"/>
		</contour>
		<contour>
			<point x="211" y="92" type="line"/>
			<point x="211" y="4" type="line"/>
			<point x="295" y="4" type="line"/>
			<point x="295" y="92" type="line"/>
		</contour>
	</outline>
</glyph>
<glyph name="C" format="2">
	<advance width="501"/>
	<unicode hex="0043"/>
	<outline>
		<contour>
			<point x="449" y="480" type="line"/>
			<point x="446" y="619" type="line"/>
			<point x="412.776" y="619" type="line"/>
			<point x="383.979" y="666.804"/>
			<point x="334.105" y="704"/>
			<point x="250" y="704" type="curve" smooth="yes"/>
			<point x="111" y="704"/>
			<point x="57" y="562"/>
			<point x="57" y="378" type="curve" smooth="yes"/>
			<point x="57" y="205"/>
			<point x="75" y="-9"/>
			<point x="243" y="-4" type="curve" smooth="yes"/>
			<point x="318.099" y="-1.653"/>
			<point x="366.981" y="25.368"/>
			<point x="398.023" y="63" type="curve"/>
			<point x="442" y="63" type="line"/>
			<point x="447" y="211" type="line"/>
			<point x="365" y="212" type="line"/>
			<point x="362" y="119"/>
			<point x="313" y="67"/>
			<point x="243" y="68" type="curve" smooth="yes"/>
			<point x="158" y="69"/>
			<point x="129" y="165"/>
			<point x="129" y="378" type="curve" smooth="yes"/>
			<point x="129" y="523"/>
			<point x="177" y="632"/>
			<point x="250" y="632" type="curve" smooth="yes"/>
			<point x="322" y="632"/>
			<point x="364" y="567"/>
			<point x="367" y="479" type="curve"/>
		</contour>
	</outline>
</glyph>
<glyph name="D" format="2">
	<advance width="500"/>
	<unicode hex="0044"/>
	<outline>
		<contour>
			<point x="213" y="-4" type="line" smooth="yes"/>
			<point x="344" y="-4"/>
			<point x="452" y="140"/>
			<point x="452" y="350" type="curve" smooth="yes"/>
			<point x="452" y="588"/>
			<point x="315" y="704"/>
			<point x="213" y="704" type="curve" smooth="yes"/>
			<point x="72" y="704" type="line"/>
			<point x="72" y="633" type="line"/>
			<point x="97" y="633" type="line"/>
			<point x="97" y="67" type="line"/>
			<point x="72" y="67" type="line"/>
			<point x="72" y="-4" type="line"/>
		</contour>
		<contour>
			<point x="167" y="67" type="line"/>
			<point x="167" y="633" type="line"/>
			<point x="213" y="633" type="line" smooth="yes"/>
			<point x="276" y="633"/>
			<point x="380" y="543"/>
			<point x="380" y="350" type="curve" smooth="yes"/>
			<point x="380" y="194"/>
			<point x="292" y="67"/>
			<point x="213" y="67" type="curve" smooth="yes"/>
		</contour>
	</outline>
</glyph>
<glyph name="F" format="2">
	<advance width="500"/>
	<unicode hex="0046"/>
	<outline>
		<contour>
			<point x="203" y="71" type="line"/>
			<point x="171" y="71" type="line"/>
			<point x="171" y="324" type="line"/>
			<point x="313" y="324" type="line"/>
			<point x="376" y="323" type="line"/>
			<point x="376" y="395" type="line"/>
			<point x="313" y="394" type="line"/>
			<point x="171" y="394" type="line"/>
			<point x="171" y="631" type="line"/>
			<point x="375" y="631" type="line"/>
			<point x="375" y="565" type="line"/>
			<point x="445" y="565" type="line"/>
			<point x="445" y="631" type="line"/>
			<point x="444" y="700" type="line"/>
			<point x="80" y="701" type="line"/>
			<point x="80" y="631" type="line"/>
			<point x="101" y="631" type="line"/>
			<point x="101" y="71" type="line"/>
			<point x="81" y="71" type="line"/>
			<point x="81" y="1" type="line"/>
			<point x="203" y="1" type="line"/>
		</contour>
	</outline>
</glyph>
<glyph name="H" format="2">
	<advance width="500"/>
	<unicode hex="0048"/>
	<outline>
		<contour>
			<point x="161" y="700" type="line"/>
			<point x="50" y="700" type="line"/>
			<point x="50" y="630" type="line"/>
			<point x="71" y="630" type="line"/>
			<point x="71" y="70" type="line"/>
			<point x="50" y="70" type="line"/>
			<point x="50" y="0" type="line"/>
			<point x="161" y="0" type="line"/>
			<point x="161" y="70" type="line"/>
			<point x="141" y="70" type="line"/>
			<point x="141" y="321" type="line"/>
			<point x="359" y="320" type="line"/>
			<point x="359" y="70" type="line"/>
			<point x="339" y="70" type="line"/>
			<point x="339" y="0" type="line"/>
			<point x="450" y="0" type="line"/>
			<point x="450" y="70" type="line"/>
			<point x="429" y="70" type="line"/>
			<point x="429" y="630" type="line"/>
			<point x="450" y="630" type="line"/>
			<point x="450" y="700" type="line"/>
			<point x="339" y="700" type="line"/>
			<point x="339" y="630" type="line"/>
			<point x="359" y="630" type="line"/>
			<point x="359" y="390" type="line"/>
			<point x="141" y="391" type="line"/>
			<point x="141" y="630" type="line"/>
			<point x="161" y="630" type="line"/>
		</contour>
	</outline>
</glyph>
<glyph name="N" format="2">
	<advance width="500"/>
	<unicode hex="004E"/>
	<outline>
		<contour>
			<point x="164" y="699" type="line"/>
			<point x="62" y="699" type="line"/>
			<point x="62" y="629" type="line"/>
			<point x="80" y="629" type="line"/>
			<point x="80" y="69" type="line"/>
			<point x="62" y="69" type="line"/>
			<point x="62" y="-1" type="line"/>
			<point x="182" y="-1" type="line"/>
			<point x="182" y="69" type="line"/>
			<point x="149.7" y="69" type="line"/>
			<point x="147.503" y="581.565" type="line"/>
			<point x="364.8" y="185.955" type="line"/>
			<point x="364.304" y="70" type="line"/>
			<point x="338" y="70" type="line"/>
			<point x="338" y="0" type="line"/>
			<point x="364.004" y="0" type="line"/>
			<point x="364" y="-1" type="line"/>
			<point x="434" y="-1" type="line"/>
			<point x="434" y="0" type="line"/>
			<point x="452" y="0" type="line"/>
			<point x="452" y="70" type="line"/>
			<point x="434" y="70" type="line"/>
			<point x="434" y="630" type="line"/>
			<point x="452" y="630" type="line"/>
			<point x="452" y="700" type="line"/>
			<point x="338" y="700" type="line"/>
			<point x="338" y="630" type="line"/>
			<point x="366.7" y="630" type="line"/>
			<point x="365.424" y="331.858" type="line"/>
		</contour>
	</outline>
</glyph>
<glyph name="O" format="2">
	<advance width="500"/>
	<unicode hex="004F"/>
	<outline>
		<contour>
			<point x="245" y="704" type="curve" smooth="yes"/>
			<point x="401" y="704"/>
			<point x="447" y="575"/>
			<point x="447" y="350" type="curve" smooth="yes"/>
			<point x="447" y="150"/>
			<point x="412" y="-4"/>
			<point x="245" y="-4" type="curve" smooth="yes"/>
			<point x="78" y="-4"/>
			<point x="43" y="150"/>
			<point x="43" y="350" type="curve" smooth="yes"/>
			<point x="43" y="575"/>
			<point x="89" y="704"/>
		</contour>
		<contour>
			<point x="113" y="350" type="curve" smooth="yes"/>
			<point x="113" y="137"/>
			<point x="164" y="68"/>
			<point x="245" y="67" type="curve" smooth="yes"/>
			<point x="326" y="68"/>
			<point x="378" y="137"/>
			<point x="378" y="350" type="curve" smooth="yes"/>
			<point x="378" y="568"/>
			<point x="323" y="634"/>
			<point x="245" y="634" type="curve" smooth="yes"/>
			<point x="164" y="634"/>
			<point x="113" y="568"/>
		</contour>
	</outline>
</glyph>
<glyph name="P" format="2">
	<advance width="466"/>
	<unicode hex="0050"/>
	<outline>
		<contour>
			<point x="222" y="700" type="curve" smooth="yes"/>
			<point x="74" y="700" type="line"/>
			<point x="74" y="630" type="line"/>
			<point x="97" y="630" type="line"/>
			<point x="97" y="70" type="line"/>
			<point x="78" y="70" type="line"/>
			<point x="78" y="0" type="line"/>
			<point x="192" y="0" type="line"/>
			<point x="192" y="70" type="line"/>
			<point x="167" y="70" type="line"/>
			<point x="167" y="302" type="line"/>
			<point x="227" y="302" type="line" smooth="yes"/>
			<point x="339" y="302"/>
			<point x="427" y="381"/>
			<point x="426" y="502" type="curve" smooth="yes"/>
			<point x="425" y="616"/>
			<point x="371" y="700"/>
		</contour>
		<contour>
			<point x="167" y="372" type="line"/>
			<point x="167" y="630" type="line"/>
			<point x="222" y="630" type="line" smooth="yes"/>
			<point x="318" y="630"/>
			<point x="356" y="566"/>
			<point x="356" y="502" type="curve" smooth="yes"/>
			<point x="356" y="409"/>
			<point x="285" y="372"/>
			<point x="222" y="372" type="curve" smooth="yes"/>
		</contour>
		<contour>
			<point x="-128" y="324" type="move"/>
		</contour>
	</outline>
</glyph>
<glyph name="R" format="2">
	<advance width="500"/>
	<unicode hex="0052"/>
	<outline>
		<contour>
			<point x="210" y="708" type="curve" smooth="yes"/>
			<point x="69" y="708" type="line"/>
			<point x="69" y="638" type="line"/>
			<point x="93" y="638" type="line"/>
			<point x="93" y="62" type="line"/>
			<point x="73" y="62" type="line"/>
			<point x="73" y="-10" type="line"/>
			<point x="187" y="-10" type="line"/>
			<point x="187" y="62" type="line"/>
			<point x="163" y="62" type="line"/>
			<point x="163" y="314" type="line"/>
			<point x="227" y="314" type="line"/>
			<point x="240.695" y="314.285" type="line"/>
			<point x="350.905" y="65" type="line"/>
			<point x="331" y="65" type="line"/>
			<point x="331" y="-7" type="line"/>
			<point x="447" y="-7" type="line"/>
			<point x="447" y="65" type="line"/>
			<point x="427.905" y="65" type="line"/>
			<point x="312.049" y="327.056" type="line"/>
			<point x="399.119" y="357.077"/>
			<point x="436.781" y="435.072"/>
			<point x="436" y="521" type="curve" smooth="yes"/>
			<point x="435" y="636"/>
			<point x="352" y="708"/>
		</contour>
		<contour>
			<point x="163" y="384" type="line"/>
			<point x="163" y="638" type="line"/>
			<point x="210" y="638" type="line" smooth="yes"/>
			<point x="309" y="638"/>
			<point x="366" y="587"/>
			<point x="366" y="521" type="curve" smooth="yes"/>
			<point x="366" y="439"/>
			<point x="310" y="384"/>
			<point x="222" y="384" type="curve" smooth="yes"/>
		</contour>
	</outline>
</glyph>
<glyph name="S" format="2">
	<advance width="500"/>
	<unicode hex="0053"/>
	<outline>
		<contour>
			<point x="250" y="-11" type="curve" smooth="yes"/>
			<point x="372" y="-11"/>
			<point x="445" y="65"/>
			<point x="445" y="193" type="curve" smooth="yes"/>
			<point x="445" y="271"/>
			<point x="412" y="323"/>
			<point x="249" y="390" type="curve" smooth="yes"/>
			<point x="181" y="418"/>
			<point x="136" y="462"/>
			<point x="135" y="512" type="curve" smooth="yes"/>
			<point x="135" y="592"/>
			<point x="176" y="630"/>
			<point x="250" y="630" type="curve" smooth="yes"/>
			<point x="319" y="630"/>
			<point x="369" y="574"/>
			<point x="369" y="505" type="curve"/>
			<point x="444" y="505" type="line"/>
			<point x="441" y="644" type="line"/>
			<point x="389.907" y="644" type="line"/>
			<point x="356.078" y="678.661"/>
			<point x="307.945" y="700"/>
			<point x="250" y="700" type="curve" smooth="yes"/>
			<point x="128" y="700"/>
			<point x="65" y="631"/>
			<point x="65" y="512" type="curve" smooth="yes"/>
			<point x="66" y="426"/>
			<point x="128" y="358"/>
			<point x="236" y="318" type="curve" smooth="yes"/>
			<point x="295" y="296"/>
			<point x="375" y="247"/>
			<point x="375" y="193" type="curve" smooth="yes"/>
			<point x="375" y="104"/>
			<point x="324" y="59"/>
			<point x="250" y="59" type="curve" smooth="yes"/>
			<point x="181" y="59"/>
			<point x="131" y="127"/>
			<point x="131" y="200" type="curve"/>
			<point x="56" y="200" type="line"/>
			<point x="59" y="55" type="line"/>
			<point x="106.593" y="55" type="line"/>
			<point x="140.674" y="14.818"/>
			<point x="190.252" y="-11"/>
		</contour>
	</outline>
</glyph>
<glyph name="T" format="2">
	<advance width="500"/>
	<unicode hex="0054"/>
	<outline>
		<contour>
			<point x="457" y="704" type="line"/>
			<point x="43" y="704" type="line"/>
			<point x="43" y="596" type="line"/>
			<point x="113" y="596" type="line"/>
			<point x="113" y="624" type="line"/>
			<point x="215" y="624" type="line"/>
			<point x="215" y="58" type="line"/>
			<point x="183" y="58" type="line"/>
			<point x="183" y="-12" type="line"/>
			<point x="317" y="-12" type="line"/>
			<point x="317" y="58" type="line"/>
			<point x="285" y="58" type="line"/>
			<point x="285" y="624" type="line"/>
			<point x="387" y="624" type="line"/>
			<point x="387" y="596" type="line"/>
			<point x="457" y="596" type="line"/>
		</contour>
	</outline>
</glyph>
<glyph name="V" format="2">
	<advance width="500"/>
	<unicode hex="0056"/>
	<outline>
		<contour>
			<point x="166" y="708" type="line"/>
			<point x="32" y="708" type="line"/>
			<point x="32" y="638" type="line"/>
			<point x="61.94" y="638" type="line"/>
			<point x="207" y="-8" type="line"/>
			<point x="293" y="-8" type="line"/>
			<point x="438.06" y="638" type="line"/>
			<point x="468" y="638" type="line"/>
			<point x="468" y="708" type="line"/>
			<point x="334" y="708" type="line"/>
			<point x="334" y="638" type="line"/>
			<point x="360.06" y="638" type="line"/>
			<point x="250" y="147.867" type="line"/>
			<point x="139.94" y="638" type="line"/>
			<point x="166" y="638" type="line"/>
		</contour>
	</outline>
</glyph>
<glyph name="W" format="2">
	<advance width="500"/>
	<unicode hex="0057"/>
	<outline>
		<contour>
			<point x="178" y="-1" type="line"/>
			<point x="245.648" y="358.378" type="line"/>
			<point x="314" y="-1" type="line"/>
			<point x="391" y="-1" type="line"/>
			<point x="433.202" y="634" type="line"/>
			<point x="457" y="634" type="line"/>
			<point x="457" y="704" type="line"/>
			<point x="332" y="704" type="line"/>
			<point x="332" y="634" type="line"/>
			<point x="362.314" y="634" type="line"/>
			<point x="337.894" y="206.989" type="line"/>
			<point x="275" y="509" type="line"/>
			<point x="216" y="509" type="line"/>
			<point x="153.106" y="206.989" type="line"/>
			<point x="128.686" y="634" type="line"/>
			<point x="159" y="634" type="line"/>
			<point x="159" y="704" type="line"/>
			<point x="34" y="704" type="line"/>
			<point x="34" y="634" type="line"/>
			<point x="57.798" y="634" type="line"/>
			<point x="100" y="-1" type="line"/>
		</contour>
	</outline>
</glyph>
<glyph name="X" format="2">
	<advance width="500"/>
	<unicode hex="0058"/>
	<outline>
		<contour>
			<point x="139" y="701" type="line"/>
			<point x="43" y="701" type="line"/>
			<point x="43" y="631" type="line"/>
			<point x="95.249" y="631" type="line"/>
			<point x="213.5" y="348" type="line"/>
			<point x="95.249" y="65" type="line"/>
			<point x="43" y="65" type="line"/>
			<point x="43" y="-5" type="line"/>
			<point x="139" y="-5" type="line"/>
			<point x="251.302" y="257.533" type="line"/>
			<point x="361" y="-5" type="line"/>
			<point x="457" y="-5" type="line"/>
			<point x="457" y="65" type="line"/>
			<point x="411.057" y="65" type="line"/>
			<point x="290" y="348" type="line"/>
			<point x="411.057" y="631" type="line"/>
			<point x="457" y="631" type="line"/>
			<point x="457" y="701" type="line"/>
			<point x="361" y="701" type="line"/>
			<point x="251.302" y="438.467" type="line"/>
		</contour>
	</outline>
</glyph>
<glyph name="bracketleft" format="2">
	<advance width="500"/>
	<unicode hex="005B"/>
	<outline>
		<contour>
			<point x="411" y="-47" type="line"/>
			<point x="411" y="20" type="line"/>
			<point x="195" y="20" type="line"/>
			<point x="195" y="660" type="line"/>
			<point x="411" y="660" type="line"/>
			<point x="411" y="727" type="line"/>
			<point x="126" y="727" type="line"/>
			<point x="126" y="-47" type="line"/>
		</contour>
	</outline>
</glyph>
<glyph name="backslash" format="2">
	<advance width="500"/>
	<unicode hex="005C"/>
	<outline>
		<contour>
			<point x="159" y="701" type="line"/>
			<point x="86" y="701" type="line"/>
			<point x="340" y="1" type="line"/>
			<point x="413" y="1" type="line"/>
		</contour>
	</outline>
</glyph>
<glyph name="b" format="2">
	<advance width="500"/>
	<unicode hex="0062"/>
	<outline>
		<contour>
			<point x="155" y="-1" type="line"/>
			<point x="158" y="50" type="line"/>
			<point x="185" y="16"/>
			<point x="208" y="-3"/>
			<point x="264" y="-3" type="curve" smooth="yes"/>
			<point x="397" y="-3"/>
			<point x="451" y="109"/>
			<point x="451" y="249" type="curve" smooth="yes"/>
			<point x="451" y="393"/>
			<point x="395" y="500"/>
			<point x="264" y="500" type="curve" smooth="yes"/>
			<point x="216" y="500"/>
			<point x="185" y="483"/>
			<point x="158" y="449" type="curve"/>
			<point x="158" y="625" type="line"/>
			<point x="155" y="705" type="line"/>
			<point x="74" y="705" type="line"/>
			<point x="77" y="625" type="line"/>
			<point x="88" y="625" type="line"/>
			<point x="88" y="79" type="line"/>
			<point x="75" y="79" type="line"/>
			<point x="72" y="-1" type="line"/>
		</contour>
		<contour>
			<point x="159" y="250" type="curve" smooth="yes"/>
			<point x="159" y="364"/>
			<point x="197" y="429"/>
			<point x="264" y="429" type="curve" smooth="yes"/>
			<point x="341" y="429"/>
			<point x="381" y="349"/>
			<point x="381" y="249" type="curve" smooth="yes"/>
			<point x="381" y="136"/>
			<point x="342" y="65"/>
			<point x="264" y="65" type="curve" smooth="yes"/>
			<point x="194" y="65"/>
			<point x="159" y="134"/>
		</contour>
	</outline>
</glyph>
<glyph name="d" format="2">
	<advance width="500"/>
	<unicode hex="0064"/>
	<outline>
		<contour>
			<point x="350" y="-1" type="line"/>
			<point x="432" y="-1" type="line"/>
			<point x="429" y="79" type="line"/>
			<point x="416" y="79" type="line"/>
			<point x="416" y="625" type="line"/>
			<point x="427" y="625" type="line"/>
			<point x="430" y="705" type="line"/>
			<point x="350" y="705" type="line"/>
			<point x="348" y="625" type="line"/>
			<point x="348" y="453" type="line"/>
			<point x="321" y="487"/>
			<point x="281" y="504"/>
			<point x="226" y="504" type="curve" smooth="yes"/>
			<point x="102" y="504"/>
			<point x="39" y="416"/>
			<point x="39" y="249" type="curve" smooth="yes"/>
			<point x="39" y="98"/>
			<point x="98" y="-3"/>
			<point x="226" y="-3" type="curve" smooth="yes"/>
			<point x="282" y="-3"/>
			<point x="321" y="16"/>
			<point x="348" y="50" type="curve"/>
		</contour>
		<contour>
			<point x="109" y="249" type="curve" smooth="yes"/>
			<point x="109" y="368"/>
			<point x="156" y="436"/>
			<point x="226" y="436" type="curve" smooth="yes"/>
			<point x="295" y="436"/>
			<point x="347" y="368"/>
			<point x="347" y="250" type="curve" smooth="yes"/>
			<point x="347" y="134"/>
			<point x="296" y="64"/>
			<point x="226" y="64" type="curve" smooth="yes"/>
			<point x="156" y="64"/>
			<point x="109" y="134"/>
		</contour>
	</outline>
</glyph>
<glyph name="e" format="2">
	<advance width="500"/>
	<unicode hex="0065"/>
	<outline>
		<contour>
			<point x="141" y="199" type="curve"/>
			<point x="418" y="199"/>
			<point x="434" y="313"/>
			<point x="434" y="355" type="curve" smooth="yes"/>
			<point x="434" y="441"/>
			<point x="363" y="500"/>
			<point x="258" y="499" type="curve" smooth="yes"/>
			<point x="133" y="498"/>
			<point x="71" y="409"/>
			<point x="71" y="245" type="curve" smooth="yes"/>
			<point x="71" y="79"/>
			<point x="118" y="-8"/>
			<point x="258" y="-8" type="curve" smooth="yes"/>
			<point x="365" y="-8"/>
			<point x="411" y="44"/>
			<point x="435" y="147" type="curve"/>
			<point x="362" y="147" type="line"/>
			<point x="346" y="90"/>
			<point x="319" y="57"/>
			<point x="261" y="57" type="curve" smooth="yes"/>
			<point x="185" y="57"/>
			<point x="147" y="103"/>
		</contour>
		<contour>
			<point x="141" y="260" type="curve"/>
			<point x="147" y="374"/>
			<point x="180" y="433"/>
			<point x="261" y="433" type="curve" smooth="yes"/>
			<point x="314" y="433"/>
			<point x="364" y="406"/>
			<point x="364" y="355" type="curve" smooth="yes"/>
			<point x="364" y="295"/>
			<point x="292" y="260"/>
		</contour>
	</outline>
</glyph>
<glyph name="f" format="2">
	<advance width="500"/>
	<unicode hex="0066"/>
	<outline>
		<contour>
			<point x="104" y="430" type="line"/>
			<point x="104" y="500" type="line"/>
			<point x="216" y="500" type="line"/>
			<point x="216" y="581" type="line" smooth="yes"/>
			<point x="216" y="659"/>
			<point x="264" y="732"/>
			<point x="368" y="735" type="curve" smooth="yes"/>
			<point x="388" y="736"/>
			<point x="414" y="731"/>
			<point x="435" y="720" type="curve"/>
			<point x="403" y="662" type="line"/>
			<point x="395" y="665"/>
			<point x="388" y="667"/>
			<point x="376" y="667" type="curve" smooth="yes"/>
			<point x="307" y="665"/>
			<point x="286" y="616"/>
			<point x="286" y="569" type="curve" smooth="yes"/>
			<point x="286" y="500" type="line"/>
			<point x="450" y="500" type="line"/>
			<point x="450" y="430" type="line"/>
			<point x="286" y="430" type="line"/>
			<point x="286" y="-8" type="line" smooth="yes"/>
			<point x="286" y="-149"/>
			<point x="244" y="-209"/>
			<point x="175" y="-209" type="curve" smooth="yes"/>
			<point x="108" y="-209"/>
			<point x="81" y="-179"/>
			<point x="34" y="-88" type="curve"/>
			<point x="90" y="-55" type="line"/>
			<point x="123" y="-120"/>
			<point x="144" y="-139"/>
			<point x="175" y="-139" type="curve" smooth="yes"/>
			<point x="200" y="-139"/>
			<point x="216" y="-91"/>
			<point x="216" y="-10" type="curve" smooth="yes"/>
			<point x="216" y="430" type="line"/>
		</contour>
	</outline>
</glyph>
<glyph name="i" format="2">
	<advance width="500"/>
	<unicode hex="0069"/>
	<outline>
		<contour>
			<point x="76" y="491" type="line"/>
			<point x="76" y="421" type="line"/>
			<point x="214" y="422" type="line"/>
			<point x="214" y="201" type="line" smooth="yes"/>
			<point x="214" y="60"/>
			<point x="251" y="-1"/>
			<point x="320" y="-1" type="curve" smooth="yes"/>
			<point x="386" y="-1"/>
			<point x="426" y="37"/>
			<point x="471" y="127" type="curve"/>
			<point x="416" y="155" type="line"/>
			<point x="393" y="105"/>
			<point x="362" y="67"/>
			<point x="320" y="67" type="curve" smooth="yes"/>
			<point x="293" y="67"/>
			<point x="284" y="115"/>
			<point x="284" y="200" type="curve" smooth="yes"/>
			<point x="284" y="491" type="line"/>
		</contour>
		<contour>
			<point x="199" y="572" type="line"/>
			<point x="286" y="572" type="line"/>
			<point x="286" y="659" type="line"/>
			<point x="199" y="659" type="line"/>
		</contour>
	</outline>
</glyph>
<glyph name="l" format="2">
	<advance width="500"/>
	<unicode hex="006C"/>
	<outline>
		<contour>
			<point x="194" y="200" type="line" smooth="yes"/>
			<point x="193" y="58"/>
			<point x="220" y="0"/>
			<point x="304" y="0" type="curve" smooth="yes"/>
			<point x="377" y="0"/>
			<point x="413" y="35"/>
			<point x="457" y="126" type="curve"/>
			<point x="400" y="154" type="line"/>
			<point x="375" y="100"/>
			<point x="354" y="68"/>
			<point x="307" y="68" type="curve" smooth="yes"/>
			<point x="273" y="68"/>
			<point x="262" y="104"/>
			<point x="262" y="199" type="curve" smooth="yes"/>
			<point x="264" y="687" type="line"/>
			<point x="114" y="687" type="line"/>
			<point x="60" y="688" type="line"/>
			<point x="60" y="616" type="line"/>
			<point x="114" y="617" type="line"/>
			<point x="196" y="617" type="line"/>
		</contour>
	</outline>
</glyph>
<glyph name="m" format="2">
	<advance width="500"/>
	<unicode hex="006D"/>
	<outline>
		<contour>
			<point x="168" y="335" type="line" smooth="yes"/>
			<point x="168" y="396"/>
			<point x="188" y="449"/>
			<point x="207" y="449" type="curve" smooth="yes"/>
			<point x="228" y="449"/>
			<point x="245" y="396"/>
			<point x="245" y="335" type="curve" smooth="yes"/>
			<point x="245" y="225" type="line"/>
			<point x="304" y="225" type="line"/>
			<point x="304" y="335" type="line" smooth="yes"/>
			<point x="304" y="396"/>
			<point x="323" y="448"/>
			<point x="343" y="448" type="curve" smooth="yes"/>
			<point x="361" y="448"/>
			<point x="377" y="396"/>
			<point x="377" y="335" type="curve" smooth="yes"/>
			<point x="377" y="-1" type="line"/>
			<point x="461" y="-1" type="line"/>
			<point x="458" y="69" type="line"/>
			<point x="447" y="69" type="line"/>
			<point x="447" y="335" type="line" smooth="yes"/>
			<point x="447" y="434"/>
			<point x="399" y="513"/>
			<point x="343" y="513" type="curve" smooth="yes"/>
			<point x="316" y="513"/>
			<point x="293" y="496"/>
			<point x="276" y="468" type="curve"/>
			<point x="260" y="496"/>
			<point x="235" y="513"/>
			<point x="207" y="513" type="curve" smooth="yes"/>
			<point x="185" y="513"/>
			<point x="157" y="486"/>
			<point x="138" y="444" type="curve"/>
			<point x="129" y="467"/>
			<point x="106" y="494"/>
			<point x="89" y="514" type="curve"/>
			<point x="32" y="461" type="line"/>
			<point x="44" y="445"/>
			<point x="56" y="428"/>
			<point x="67" y="407" type="curve"/>
			<point x="83" y="418" type="line"/>
			<point x="97" y="391"/>
			<point x="100" y="368"/>
			<point x="100" y="335" type="curve" smooth="yes"/>
			<point x="101" y="69" type="line"/>
			<point x="91" y="69" type="line"/>
			<point x="86" y="-1" type="line"/>
			<point x="166" y="-1" type="line"/>
			<point x="170" y="0" type="line"/>
		</contour>
	</outline>
</glyph>
<glyph name="q" format="2">
	<advance width="500"/>
	<unicode hex="0071"/>
	<outline>
		<contour>
			<point x="235" y="55" type="curve" smooth="yes"/>
			<point x="151" y="55"/>
			<point x="118" y="120"/>
			<point x="118" y="242" type="curve" smooth="yes"/>
			<point x="118" y="366"/>
			<point x="151" y="429"/>
			<point x="235" y="429" type="curve" smooth="yes"/>
			<point x="318" y="429"/>
			<point x="352" y="366"/>
			<point x="352" y="242" type="curve" smooth="yes"/>
			<point x="352" y="122"/>
			<point x="319" y="55"/>
		</contour>
		<contour>
			<point x="438" y="-203" type="line"/>
			<point x="435" y="-123" type="line"/>
			<point x="422" y="-123" type="line"/>
			<point x="422" y="420" type="line"/>
			<point x="433" y="420" type="line"/>
			<point x="436" y="500" type="line"/>
			<point x="354" y="500" type="line"/>
			<point x="352" y="450" type="line"/>
			<point x="325" y="481"/>
			<point x="287" y="496"/>
			<point x="238" y="496" type="curve" smooth="yes"/>
			<point x="96" y="496"/>
			<point x="48" y="418"/>
			<point x="48" y="243" type="curve" smooth="yes"/>
			<point x="48" y="74"/>
			<point x="96" y="-8"/>
			<point x="238" y="-8" type="curve" smooth="yes"/>
			<point x="289" y="-8"/>
			<point x="326" y="6"/>
			<point x="352" y="35" type="curve"/>
			<point x="352" y="-123" type="line"/>
			<point x="354" y="-203" type="line"/>
		</contour>
	</outline>
</glyph>
<glyph name="r" format="2">
	<advance width="500"/>
	<unicode hex="0072"/>
	<outline>
		<contour>
			<point x="419" y="369" type="line"/>
			<point x="466" y="454" type="line"/>
			<point x="435" y="486"/>
			<point x="390" y="500"/>
			<point x="328" y="500" type="curve" smooth="yes"/>
			<point x="256.19" y="500"/>
			<point x="207.067" y="479.716"/>
			<point x="176.354" y="435.564" type="curve"/>
			<point x="166.407" y="454.928"/>
			<point x="152" y="474"/>
			<point x="137" y="493" type="curve"/>
			<point x="69" y="441" type="line"/>
			<point x="82" y="425"/>
			<point x="95" y="407"/>
			<point x="106" y="386" type="curve"/>
			<point x="122" y="395" type="line"/>
			<point x="138" y="376"/>
			<point x="139" y="361"/>
			<point x="139" y="322" type="curve" smooth="yes"/>
			<point x="139" y="69" type="line"/>
			<point x="129" y="69" type="line"/>
			<point x="125" y="-1" type="line"/>
			<point x="223" y="-1" type="line"/>
			<point x="220" y="69" type="line"/>
			<point x="209" y="69" type="line"/>
			<point x="209" y="245" type="line" smooth="yes"/>
			<point x="209" y="372"/>
			<point x="248" y="435"/>
			<point x="331" y="435" type="curve" smooth="yes"/>
			<point x="344" y="435"/>
			<point x="367" y="431"/>
			<point x="375" y="428" type="curve"/>
			<point x="370" y="389" type="line"/>
		</contour>
	</outline>
</glyph>
<glyph name="w" format="2">
	<advance width="501"/>
	<unicode hex="0077"/>
	<outline>
		<contour>
			<point x="197" y="1" type="line"/>
			<point x="250" y="204" type="line"/>
			<point x="303" y="1" type="line"/>
			<point x="377" y="1" type="line"/>
			<point x="439.952" y="419" type="line"/>
			<point x="462" y="419" type="line"/>
			<point x="465" y="499" type="line"/>
			<point x="382" y="499" type="line"/>
			<point x="340" y="104" type="line"/>
			<point x="287" y="294" type="line"/>
			<point x="214" y="294" type="line"/>
			<point x="160" y="104" type="line"/>
			<point x="120" y="499" type="line"/>
			<point x="39" y="499" type="line"/>
			<point x="41" y="419" type="line"/>
			<point x="61.888" y="419" type="line"/>
			<point x="124" y="1" type="line"/>
		</contour>
	</outline>
</glyph>
<glyph name="z" format="2">
	<advance width="500"/>
	<unicode hex="007A"/>
	<outline>
		<contour>
			<point x="437" y="0" type="line"/>
			<point x="437" y="92" type="line"/>
			<point x="366" y="89" type="line"/>
			<point x="366" y="70" type="line"/>
			<point x="164" y="70" type="line"/>
			<point x="437" y="430" type="line"/>
			<point x="437" y="500" type="line"/>
			<point x="63" y="500" type="line"/>
			<point x="63" y="408" type="line"/>
			<point x="134" y="411" type="line"/>
			<point x="134" y="430" type="line"/>
			<point x="337" y="430" type="line"/>
			<point x="64" y="70" type="line"/>
			<point x="64" y="0" type="line"/>
		</contour>
	</outline>
</glyph>
<glyph name="braceleft" format="2">
	<advance width="500"/>
	<unicode hex="007B"/>
	<outline>
		<contour>
			<point x="381" y="757" type="line"/>
			<point x="290" y="740"/>
			<point x="189" y="688"/>
			<point x="183" y="552" type="curve" smooth="yes"/>
			<point x="178" y="447"/>
			<point x="156" y="407"/>
			<point x="71" y="388" type="curve"/>
			<point x="71" y="311" type="line"/>
			<point x="172" y="334"/>
			<point x="242" y="345"/>
			<point x="246" y="508" type="curve" smooth="yes"/>
			<point x="249" y="620"/>
			<point x="306" y="672"/>
			<point x="380" y="679" type="curve"/>
		</contour>
		<contour>
			<point x="378" y="-77" type="curve"/>
			<point x="380" y="1" type="line"/>
			<point x="311" y="8"/>
			<point x="249" y="59"/>
			<point x="246" y="172" type="curve" smooth="yes"/>
			<point x="242" y="335"/>
			<point x="174" y="350"/>
			<point x="71" y="373" type="curve"/>
			<point x="71" y="292" type="line"/>
			<point x="156" y="273"/>
			<point x="178" y="233"/>
			<point x="183" y="128" type="curve" smooth="yes"/>
			<point x="189" y="-8"/>
			<point x="287" y="-60"/>
		</contour>
	</outline>
</glyph>
<glyph name="bar" format="2">
	<advance width="500"/>
	<unicode hex="007C"/>
	<outline>
		<contour>
			<point x="215" y="743" type="line"/>
			<point x="215" y="-63" type="line"/>
			<point x="285" y="-63" type="line"/>
			<point x="285" y="743" type="line"/>
		</contour>
	</outline>
</glyph>
<glyph name="asciitilde" format="2">
	<advance width="500"/>
	<unicode hex="007E"/>
	<outline>
		<contour>
			<point x="257" y="297" type="curve"/>
			<point x="334" y="260"/>
			<point x="408" y="280"/>
			<point x="465" y="340" type="curve"/>
			<point x="420" y="391" type="line"/>
			<point x="372" y="341"/>
			<point x="322" y="341"/>
			<point x="243" y="382" type="curve" smooth="yes"/>
			<point x="166" y="420"/>
			<point x="92" y="399"/>
			<point x="35" y="339" type="curve"/>
			<point x="80" y="288" type="line"/>
			<point x="128" y="338"/>
			<point x="178" y="342"/>
		</contour>
	</outline>
</glyph>
<glyph name="divide" format="2">
	<advance width="500"/>
	<unicode hex="00F7"/>
	<outline>
		<contour>
			<point x="50" y="374" type="line"/>
			<point x="50" y="304" type="line"/>
			<point x="450" y="305" type="line"/>
			<point x="450" y="375" type="line"/>
		</contour>
		<contour>
			<point x="251" y="437" type="curve" smooth="yes"/>
			<point x="287" y="437"/>
			<point x="308" y="460"/>
			<point x="308" y="496" type="curve" smooth="yes"/>
			<point x="308" y="532"/>
			<point x="287" y="553"/>
			<point x="251" y="553" type="curve" smooth="yes"/>
			<point x="214" y="553"/>
			<point x="192" y="532"/>
			<point x="192" y="496" type="curve" smooth="yes"/>
			<point x="192" y="460"/>
			<point x="214" y="437"/>
		</contour>
		<contour>
			<point x="251" y="124" type="curve" smooth="yes"/>
			<point x="287" y="124"/>
			<point x="308" y="147"/>
			<point x="308" y="183" type="curve" smooth="yes"/>
			<point x="308" y="219"/>
			<point x="287" y="240"/>
			<point x="251" y="240" type="curve" smooth="yes"/>
			<point x="214" y="240"/>
			<point x="192" y="219"/>
			<point x="192" y="183" type="curve" smooth="yes"/>
			<point x="192" y="147"/>
			<point x="214" y="124"/>
		</contour>
	</outline>
</glyph>
<glyph name="bullet" format="2">
	<advance width="500"/>
	<unicode hex="2022"/>
	<outline>
		<contour>
			<point x="250" y="269" type="curve" smooth="yes"/>
			<point x="289" y="269"/>
			<point x="321" y="301"/>
			<point x="321" y="340" type="curve" smooth="yes"/>
			<point x="321" y="379"/>
			<point x="289" y="411"/>
			<point x="250" y="411" type="curve" smooth="yes"/>
			<point x="210" y="411"/>
			<point x="179" y="379"/>
			<point x="179" y="340" type="curve" smooth="yes"/>
			<point x="179" y="301"/>
			<point x="210" y="269"/>
		</contour>
	</outline>
</glyph>
<glyph name="perthousand" format="2">
	<advance width="500"/>
	<unicode hex="2030"/>
	<outline>
		<contour>
			<point x="282" y="700" type="line"/>
			<point x="70" y="0" type="line"/>
			<point x="147" y="0" type="line"/>
			<point x="359" y="700" type="line"/>
		</contour>
		<contour>
			<point x="363" y="170" type="line"/>
			<point x="363" y="0" type="line"/>
			<point x="440" y="0" type="line"/>
			<point x="440" y="170" type="line"/>
		</contour>
		<contour>
			<point x="76" y="700" type="line"/>
			<point x="76" y="530" type="line"/>
			<point x="153" y="530" type="line"/>
			<point x="153" y="700" type="line"/>
		</contour>
		<contour>
			<point x="237" y="170" type="line"/>
			<point x="237" y="0" type="line"/>
			<point x="314" y="0" type="line"/>
			<point x="314" y="170" type="line"/>
		</contour>
	</outline>
</glyph>
<glyph name="leftArrow" format="2">
	<advance width="500"/>
	<unicode hex="2190"/>
	<outline>
		<contour>
			<point x="460" y="305" type="line"/>
			<point x="460" y="375" type="line"/>
			<point x="40" y="375" type="line"/>
			<point x="40" y="305" type="line"/>
		</contour>
		<contour>
			<point x="261" y="177" type="line"/>
			<point x="300" y="245" type="line"/>
			<point x="80" y="368" type="line"/>
			<point x="40" y="305" type="line"/>
		</contour>
		<contour>
			<point x="261" y="503" type="line"/>
			<point x="40" y="375" type="line"/>
			<point x="80" y="313" type="line"/>
			<point x="300" y="435" type="line"/>
		</contour>
	</outline>
</glyph>
<glyph name="upArrow" format="2">
	<advance width="500"/>
	<unicode hex="2191"/>
	<outline>
		<contour>
			<point x="215" y="130" type="line"/>
			<point x="285" y="130" type="line"/>
			<point x="285" y="550" type="line"/>
			<point x="215" y="550" type="line"/>
		</contour>
		<contour>
			<point x="87" y="329" type="line"/>
			<point x="155" y="290" type="line"/>
			<point x="278" y="510" type="line"/>
			<point x="215" y="550" type="line"/>
		</contour>
		<contour>
			<point x="413" y="329" type="line"/>
			<point x="285" y="550" type="line"/>
			<point x="223" y="510" type="line"/>
			<point x="345" y="290" type="line"/>
		</contour>
	</outline>
</glyph>
<glyph name="rightArrow" format="2">
	<advance width="500"/>
	<unicode hex="2192"/>
	<outline>
		<contour>
			<point x="40" y="375" type="line"/>
			<point x="40" y="305" type="line"/>
			<point x="460" y="305" type="line"/>
			<point x="460" y="375" type="line"/>
		</contour>
		<contour>
			<point x="239" y="503" type="line"/>
			<point x="200" y="435" type="line"/>
			<point x="420" y="312" type="line"/>
			<point x="460" y="375" type="line"/>
		</contour>
		<contour>
			<point x="239" y="177" type="line"/>
			<point x="460" y="305" type="line"/>
			<point x="420" y="367" type="line"/>
			<point x="200" y="245" type="line"/>
		</contour>
	</outline>
</glyph>
<glyph name="downArrow" format="2">
	<advance width="500"/>
	<unicode hex="2193"/>
	<outline>
		<contour>
			<point x="285" y="550" type="line"/>
			<point x="215" y="550" type="line"/>
			<point x="215" y="130" type="line"/>
			<point x="285" y="130" type="line"/>
		</contour>
		<contour>
			<point x="413" y="351" type="line"/>
			<point x="345" y="390" type="line"/>
			<point x="222" y="170" type="line"/>
			<point x="285" y="130" type="line"/>
		</contour>
		<contour>
			<point x="87" y="351" type="line"/>
			<point x="215" y="130" type="line"/>
			<point x="277" y="170" type="line"/>
			<point x="155" y="390" type="line"/>
		</contour>
	</outline>
</glyph>
<glyph name="leftRightArrow" format="2">
	<advance width="500"/>
	<unicode hex="2194"/>
	<outline>
		<contour>
			<point x="40" y="375" type="line"/>
			<point x="40" y="305" type="line"/>
			<point x="460" y="305" type="line"/>
			<point x="460" y="375" type="line"/>
		</contour>
		<contour>
			<point x="312" y="499" type="line"/>
			<point x="269" y="442" type="line"/>
			<point x="420" y="313" type="line"/>
			<point x="460" y="375" type="line"/>
		</contour>
		<contour>
			<point x="312" y="181" type="line"/>
			<point x="460" y="305" type="line"/>
			<point x="421" y="367" type="line"/>
			<point x="270" y="238" type="line"/>
		</contour>
		<contour>
			<point x="188" y="499" type="line"/>
			<point x="40" y="375" type="line"/>
			<point x="80" y="313" type="line"/>
			<point x="231" y="442" type="line"/>
		</contour>
		<contour>
			<point x="188" y="181" type="line"/>
			<point x="230" y="238" type="line"/>
			<point x="79" y="367" type="line"/>
			<point x="40" y="305" type="line"/>
		</contour>
	</outline>
</glyph>
<glyph name="upDownArrow" format="2">
	<advance width="500"/>
	<unicode hex="2195"/>
	<outline>
		<contour>
			<point x="215" y="130" type="line"/>
			<point x="285" y="130" type="line"/>
			<point x="285" y="550" type="line"/>
			<point x="215" y="550" type="line"/>
		</contour>
		<contour>
			<point x="91" y="402" type="line"/>
			<point x="148" y="359" type="line"/>
			<point x="277" y="510" type="line"/>
			<point x="215" y="550" type="line"/>
		</contour>
		<contour>
			<point x="409" y="402" type="line"/>
			<point x="285" y="550" type="line"/>
			<point x="223" y="511" type="line"/>
			<point x="352" y="360" type="line"/>
		</contour>
		<contour>
			<point x="91" y="278" type="line"/>
			<point x="215" y="130" type="line"/>
			<point x="277" y="170" type="line"/>
			<point x="148" y="321" type="line"/>
		</contour>
		<contour>
			<point x="409" y="278" type="line"/>
			<point x="352" y="320" type="line"/>
			<point x="223" y="169" type="line"/>
			<point x="285" y="130" type="line"/>
		</contour>
	</outline>
</glyph>
<glyph name="northWestArrow" format="2">
	<advance width="500"/>
	<unicode hex="2196"/>
	<outline>
		<contour>
			<point x="374" y="167" type="line"/>
			<point x="423" y="216" type="line"/>
			<point x="126" y="513" type="line"/>
			<point x="77" y="464" type="line"/>
		</contour>
		<contour>
			<point x="143" y="217" type="line"/>
			<point x="218" y="237" type="line"/>
			<point x="150" y="480" type="line"/>
			<point x="77" y="464" type="line"/>
		</contour>
		<contour>
			<point x="373" y="447" type="line"/>
			<point x="126" y="513" type="line"/>
			<point x="111" y="441" type="line"/>
			<point x="353" y="372" type="line"/>
		</contour>
	</outline>
</glyph>
<glyph name="northEastArrow" format="2">
	<advance width="500"/>
	<unicode hex="2197"/>
	<outline>
		<contour>
			<point x="77" y="216" type="line"/>
			<point x="126" y="167" type="line"/>
			<point x="423" y="464" type="line"/>
			<point x="374" y="513" type="line"/>
		</contour>
		<contour>
			<point x="127" y="447" type="line"/>
			<point x="147" y="372" type="line"/>
			<point x="390" y="440" type="line"/>
			<point x="374" y="513" type="line"/>
		</contour>
		<contour>
			<point x="357" y="217" type="line"/>
			<point x="423" y="464" type="line"/>
			<point x="351" y="479" type="line"/>
			<point x="282" y="237" type="line"/>
		</contour>
	</outline>
</glyph>
<glyph name="southEastArrow" format="2">
	<advance width="500"/>
	<unicode hex="2198"/>
	<outline>
		<contour>
			<point x="126" y="513" type="line"/>
			<point x="77" y="464" type="line"/>
			<point x="374" y="167" type="line"/>
			<point x="423" y="216" type="line"/>
		</contour>
		<contour>
			<point x="357" y="463" type="line"/>
			<point x="282" y="443" type="line"/>
			<point x="350" y="200" type="line"/>
			<point x="423" y="216" type="line"/>
		</contour>
		<contour>
			<point x="127" y="233" type="line"/>
			<point x="374" y="167" type="line"/>
			<point x="389" y="239" type="line"/>
			<point x="147" y="308" type="line"/>
		</contour>
	</outline>
</glyph>
<glyph name="southWestArrow" format="2">
	<advance width="500"/>
	<unicode hex="2199"/>
	<outline>
		<contour>
			<point x="423" y="464" type="line"/>
			<point x="374" y="513" type="line"/>
			<point x="77" y="216" type="line"/>
			<point x="126" y="167" type="line"/>
		</contour>
		<contour>
			<point x="373" y="233" type="line"/>
			<point x="353" y="308" type="line"/>
			<point x="110" y="240" type="line"/>
			<point x="126" y="167" type="line"/>
		</contour>
		<contour>
			<point x="143" y="463" type="line"/>
			<point x="77" y="216" type="line"/>
			<point x="149" y="201" type="line"/>
			<point x="218" y="443" type="line"/>
		</contour>
	</outline>
</glyph>
<glyph name="notequal" format="2">
	<advance width="500"/>
	<unicode hex="2260"/>
	<outline>
		<contour>
			<point x="325" y="544" type="line"/>
			<point x="94" y="136" type="line"/>
			<point x="175" y="137" type="line"/>
			<point x="406" y="544" type="line"/>
		</contour>
		<component base="equal"/>
	</outline>
</glyph>
<glyph name="greaterequal" format="2">
	<advance width="500"/>
	<unicode hex="2265"/>
	<outline>
		<component base="greater" yOffset="79"/>
		<contour>
			<point x="456" y="296" type="line"/>
			<point x="56" y="152" type="line"/>
			<point x="56" y="72" type="line"/>
			<point x="456" y="221" type="line"/>
		</contour>
	</outline>
</glyph>
<glyph name="lozenge" format="2">
	<advance width="500"/>
	<unicode hex="25CA"/>
	<outline>
		<contour>
			<point x="250" y="561" type="line"/>
			<point x="105" y="341" type="line"/>
			<point x="250" y="120" type="line"/>
			<point x="393" y="341" type="line"/>
		</contour>
		<contour>
			<point x="250" y="504" type="line"/>
			<point x="355" y="340" type="line"/>
			<point x="250" y="174" type="line"/>
			<point x="142" y="340" type="line"/>
		</contour>
	</outline>
</glyph>
<glyph name="dottedCircle" format="2">
	<advance width="500"/>
	<unicode hex="25CC"/>
	<outline>
		<contour>
			<point x="436" y="147" type="curve" smooth="yes"/>
			<point x="495" y="249"/>
			<point x="460" y="382"/>
			<point x="357" y="441" type="curve" smooth="yes"/>
			<point x="255" y="500"/>
			<point x="122" y="464"/>
			<point x="63" y="362" type="curve" smooth="yes"/>
			<point x="3" y="258"/>
			<point x="40" y="128"/>
			<point x="142" y="69" type="curve" smooth="yes"/>
			<point x="245" y="9"/>
			<point x="376" y="43"/>
		</contour>
		<contour>
			<point x="414" y="160" type="curve" smooth="yes"/>
			<point x="361" y="68"/>
			<point x="245" y="38"/>
			<point x="154" y="90" type="curve" smooth="yes"/>
			<point x="65" y="142"/>
			<point x="32" y="258"/>
			<point x="85" y="350" type="curve" smooth="yes"/>
			<point x="137" y="440"/>
			<point x="255" y="471"/>
			<point x="344" y="419" type="curve" smooth="yes"/>
			<point x="435" y="367"/>
			<point x="466" y="250"/>
		</contour>
		<contour>
			<point x="116" y="106" type="line"/>
			<point x="132" y="97" type="line"/>
			<point x="328" y="436" type="line"/>
			<point x="312" y="445" type="line"/>
		</contour>
		<contour>
			<point x="68" y="154" type="line"/>
			<point x="83" y="145" type="line"/>
			<point x="257" y="447" type="line"/>
			<point x="242" y="456" type="line"/>
		</contour>
		<contour>
			<point x="45" y="229" type="line"/>
			<point x="60" y="220" type="line"/>
			<point x="183" y="432" type="line"/>
			<point x="167" y="441" type="line"/>
		</contour>
		<contour>
			<point x="187" y="67" type="line"/>
			<point x="383" y="406" type="line"/>
			<point x="367" y="415" type="line"/>
			<point x="171" y="76" type="line"/>
		</contour>
		<contour>
			<point x="253" y="55" type="line"/>
			<point x="427" y="356" type="line"/>
			<point x="411" y="365" type="line"/>
			<point x="237" y="64" type="line"/>
		</contour>
		<contour>
			<point x="332" y="66" type="line"/>
			<point x="454" y="278" type="line"/>
			<point x="438" y="287" type="line"/>
			<point x="316" y="75" type="line"/>
		</contour>
	</outline>
</glyph>
<glyph name="greater_equal.liga" format="2">
	<advance width="1000"/>
	<outline>
		<contour>
			<point x="857" y="377" type="line"/>
			<point x="857" y="452" type="line"/>
			<point x="143" y="607" type="line"/>
			<point x="143" y="527" type="line"/>
		</contour>
		<contour>
			<point x="857" y="447" type="line"/>
			<point x="143" y="309" type="line"/>
			<point x="143" y="229" type="line"/>
			<point x="857" y="372" type="line"/>
		</contour>
		<contour>
			<point x="857" y="291" type="line"/>
			<point x="143" y="153" type="line"/>
			<point x="143" y="73" type="line"/>
			<point x="857" y="216" type="line"/>
		</contour>
	</outline>
</glyph>
<glyph name="less_hyphen.liga" format="2">
	<advance width="1000"/>
	<outline>
		<contour>
			<point x="161" y="372" type="line"/>
			<point x="161" y="308" type="line"/>
			<point x="950" y="303" type="line"/>
			<point x="950" y="377" type="line"/>
		</contour>
		<component base="less" xOffset="16"/>
	</outline>
</glyph>
